<?xml version="1.0" encoding="utf-8"?>
<!-- Generator: Adobe Illustrator 21.0.0, SVG Export Plug-In . SVG Version: 6.00 Build 0)  -->
<svg version="1.1" id="Layer_1" xmlns="http://www.w3.org/2000/svg" xmlns:xlink="http://www.w3.org/1999/xlink" x="0px" y="0px"
	 viewBox="0 0 128 128" style="enable-background:new 0 0 128 128;" xml:space="preserve">
<path d="M121.9,65.4c0,16.5-0.2,32.9,0.1,49.4c0.2,10-8.2,15.4-15.3,15.4c-13.3,0-26.7,0-40,0c-15,0-30,0-45,0c-3.5,0-6.8-0.9-9.7-3
	c-3.9-2.8-6-6.5-6-11.3c0-26.4,0-52.8,0-79.3C6,29.4,6.2,22.2,6,15C5.8,6.9,12.6,0.5,20.5,0.3C31.7,0.1,42.8,0.3,54,0.3
	c17.4,0,34.9,0,52.3,0.1c2.2,0,4.5,0.4,6.6,1.3c5.8,2.5,9,6.9,9,13.5C121.9,31.9,121.9,48.6,121.9,65.4z M26.9,117.6
	c24.8,0,49.5,0,74.1,0c0-15.4,0-30.6,0-45.9c-24.8,0-49.4,0-74.1,0C26.9,87,26.9,102.2,26.9,117.6z M26.9,58.8c24.8,0,49.4,0,74.1,0
	c0-15.3,0-30.6,0-45.9c-24.8,0-49.4,0-74.1,0C26.9,28.3,26.9,43.5,26.9,58.8z M111.4,117.7c1.4,0,2.7,0,4.1,0c0.8,0,1.2-0.2,1.2-1.1
	c0-2.8,0-5.7-0.1-8.5c0-0.3-0.6-0.9-0.9-0.9c-2.9-0.1-5.8,0-8.7,0c-0.7,0-1,0.3-1,1.1c0,2.8,0,5.6,0,8.4c0,0.8,0.3,1.1,1.1,1.1
	C108.5,117.6,110,117.7,111.4,117.7z M106,31.9c0,3.4,0,6.5,0,9.7c0,0.3,0.6,0.7,0.9,0.7c2.9,0.1,5.8,0.1,8.6,0
	c0.3,0,0.9-0.6,0.9-0.9c0.1-2.9,0.1-5.8,0-8.6c0-0.3-0.5-0.9-0.8-0.9C112.6,31.9,109.5,31.9,106,31.9z M116.6,61.2
	c0-3.3,0-6.4,0-9.5c0-0.3-0.6-0.9-0.9-0.9c-2.9-0.1-5.8-0.1-8.7,0c-0.3,0-0.9,0.6-1,0.9c-0.1,2.9-0.1,5.8,0,8.7
	c0,0.3,0.4,0.8,0.7,0.8C110,61.2,113.2,61.2,116.6,61.2z M106,80c3.4,0,6.6,0,9.8,0c0.3,0,0.7-0.6,0.7-0.9c0.1-2.8,0.1-5.7,0-8.5
	c0-0.3-0.6-0.9-0.9-0.9c-2.9-0.1-5.9-0.1-8.8,0c-0.3,0-0.9,0.5-0.9,0.8C106,73.5,106,76.6,106,80z M106,13.1c0,3.4,0,6.6,0,9.7
	c0,0.3,0.6,0.7,0.9,0.7c2.9,0.1,5.8,0.1,8.6,0c0.3,0,0.9-0.6,0.9-0.9c0.1-2.9,0.1-5.8,0-8.6c0-0.3-0.5-0.9-0.8-0.9
	C112.6,13.1,109.5,13.1,106,13.1z M116.6,98.8c0-3.4,0-6.5,0-9.6c0-0.3-0.6-0.9-1-0.9c-2.9-0.1-5.8-0.1-8.6,0
	c-0.3,0-0.9,0.6-0.9,0.9c-0.1,2.9-0.1,5.8,0,8.6c0,0.3,0.5,0.8,0.8,0.8C110.1,98.9,113.2,98.8,116.6,98.8z M21.7,107.2
	c-3.5,0-6.9,0-10.3,0c0,3.5,0,6.9,0,10.3c3.5,0,6.9,0,10.3,0C21.7,114,21.7,110.7,21.7,107.2z M21.6,42.3c0-3.5,0-6.9,0-10.3
	c-3.5,0-6.9,0-10.3,0c0,3.5,0,6.9,0,10.3C14.9,42.3,18.2,42.3,21.6,42.3z M11.3,50.8c0,3.5,0,6.9,0,10.3c3.5,0,6.9,0,10.3,0
	c0-3.5,0-6.9,0-10.3C18.1,50.8,14.8,50.8,11.3,50.8z M21.6,69.6c-3.5,0-6.9,0-10.3,0c0,3.5,0,6.9,0,10.3c3.5,0,6.9,0,10.3,0
	C21.6,76.4,21.6,73.1,21.6,69.6z M11.4,88.4c0,3.5,0,6.9,0,10.3c3.5,0,6.9,0,10.2,0c0-3.5,0-6.9,0-10.3
	C18.1,88.4,14.8,88.4,11.4,88.4z M21.6,13.2c-3.5,0-6.9,0-10.3,0c0,3.5,0,6.9,0,10.3c3.5,0,6.9,0,10.3,0
	C21.6,20,21.6,16.6,21.6,13.2z"/>
</svg>
